# ProBuilder 4.2.3
# https://unity3d.com/unity/features/worldbuilding/probuilder
# 2/1/2020 2:52:40 PM

mtllib ./CurvedWall.mtl
o CurvedWall

g Cube
v 0 0 0
v -1 0 0
v 0 1 0
v -1 1 0
v -1 0 -1.260125
v -1 1 -1.260125
v -15.02838 0.04707438 -4.863674
v -14.86786 0.04362571 -5.110408
v -14.91417 1.046623 -4.873001
v -14.75364 1.043175 -5.119735
v 0 0 -1.260125
v 0 1 -1.260125
v -1.906906 0 -2.651694
v -0.9775085 0 -2.743962
v -1.906906 1 -2.651694
v -0.9775085 1 -2.743962
v -4.835451 0 -3.757912
v -4.048174 0 -3.912063
v -4.835451 1 -3.757912
v -4.048174 1 -3.912063
v -9.022802 0.001949966 -4.455774
v -8.862274 -0.001498699 -4.702508
v -8.96979 1.001499 -4.4651
v -8.809261 0.99805 -4.711834

vt 0 0
vt -1 0
vt 0 1
vt -1 1
vt -1.260125 0
vt -1.260125 1
vt 4.13504 -1.32894
vt 3.840683 -1.332403
vt 4.064839 -0.3252955
vt 3.77048 -0.3287579
vt 1.260125 0
vt 1.260125 1
vt 1 0
vt 0 -1.260125
vt 1 -1.260125
vt -1 -1.260125
vt -1.906906 -2.651694
vt -0.9775085 -2.743962
vt -1.601713 1
vt -1.601713 0
vt -3.26272 1
vt -3.26272 0
vt 1.052306 0
vt 1.052306 1
vt 2.829184 0
vt 2.829184 1
vt 0.9775085 -2.743962
vt 1.906906 -2.651694
vt -4.835451 -3.757912
vt -4.048174 -3.912063
vt -2.720902 1
vt -2.720902 0
vt -5.851413 1
vt -5.851413 0
vt 1.889251 0
vt 1.889251 1
vt 5.174589 0
vt 5.174589 1
vt 4.048174 -3.912063
vt 4.835451 -3.757912
vt -9.022802 -4.45577
vt -8.862273 -4.702499
vt -5.399824 1
vt -5.399824 0
vt -9.594209 1.001499
vt -9.644891 0.001949966
vt 4.628533 0
vt 4.628533 1
vt 9.507095 -0.001498699
vt 9.456294 0.99805
vt 4.047954 -3.910933
vt 4.835231 -3.756783
vt 8.809041 -4.710705
vt 8.969569 -4.463968
vt -9.022522 -4.456224
vt -8.861971 -4.702968
vt -15.02827 -4.864141
vt -14.86772 -5.110884
vt -9.254045 1.051098
vt -9.306295 0.05146588
vt -15.2124 1.096226
vt -15.32571 0.09653995
vt 9.160169 0.05127681
vt 9.107908 1.050909
vt 15.17959 0.09640498
vt 15.06626 1.09609
vt 8.817135 -4.703648
vt 8.977686 -4.456904
vt 14.76168 -5.111563
vt 14.92223 -4.86482

vn 0 0 1
vn -1 0 0
vn -0.8342146 0.09024762 -0.544005
vn 1 0 0
vn 0 1 0
vn 0 -1 0
vn -0.8377866 0 0.5459979
vn 0.835081 0 -0.550127
vn -0.3533669 0 0.9354848
vn 0.3555498 0 -0.9346573
vn -0.0002515606 -0.9999992 -0.00128477
vn -0.001021809 -0.9999577 0.005762689
vn -0.001792058 -0.9999163 0.01281015
vn -0.1686035 0 0.985684
vn -0.1664805 0.008959627 0.985961
vn -0.1643575 0.01791925 0.9862381
vn 0.1620242 0 -0.9867868
vn 0.1638322 -0.008992637 -0.9864045
vn 0.1656402 -0.01798527 -0.9860222
vn -0.0002204426 0.9999993 -0.001125844
vn 0.001128486 0.9999599 -0.006745074
vn 0.002477414 0.9999205 -0.0123643
vn -0.008104358 -0.9999293 0.008703473
vn -0.06835508 0.0129334 0.9975772
vn -0.06799096 0.01498444 0.9975712
vn -0.06762684 0.01703549 0.9975653
vn 0.06766197 -0.01289708 -0.9976249
vn 0.0679906 -0.01500575 -0.9975709
vn 0.06831922 -0.01711442 -0.9975168
vn 0.008184243 0.9999291 -0.008651493

usemtl ProBuilderDefault
f 3/3/1 4/4/1 2/2/1 1/1/1
f 4/3/2 6/6/2 5/5/2 2/1/2
f 9/9/3 10/10/3 8/8/3 7/7/3
f 12/12/4 3/3/4 1/1/4 11/11/4
f 12/14/5 6/15/5 4/13/5 3/1/5
f 1/1/6 2/2/6 5/16/6 11/14/6
f 13/17/6 14/18/6 11/14/6 5/16/6
f 15/21/7 13/22/7 5/20/7 6/19/7
f 14/25/8 16/26/8 12/24/8 11/23/8
f 16/27/5 15/28/5 6/15/5 12/14/5
f 17/29/6 18/30/6 14/18/6 13/17/6
f 19/33/9 17/34/9 13/32/9 15/31/9
f 18/37/10 20/38/10 16/36/10 14/35/10
f 20/39/5 19/40/5 15/28/5 16/27/5
f 21/41/12 22/42/13 18/30/12 17/29/11
f 23/45/15 21/46/16 17/44/15 19/43/14
f 22/49/18 24/50/19 20/48/18 18/47/17
f 24/53/21 23/54/22 19/52/21 20/51/20
f 7/57/23 8/58/23 22/56/23 21/55/23
f 9/61/25 7/62/26 21/60/25 23/59/24
f 8/65/28 10/66/29 24/64/28 22/63/27
f 10/69/30 9/70/30 23/68/30 24/67/30

